<mxfile host="app.diagrams.net" modified="2022-04-06T19:48:40.421Z" agent="5.0 (Macintosh; Intel Mac OS X 10_15_7) AppleWebKit/537.36 (KHTML, like Gecko) Chrome/100.0.4896.75 Safari/537.36" etag="SNDx4feLa8A1B-BX0jvU" version="17.4.0" type="github">
  <diagram id="uNBOLuVhgGo2MyKxPD7P" name="Page-1">
    <mxGraphModel dx="951" dy="456" grid="1" gridSize="10" guides="1" tooltips="1" connect="1" arrows="1" fold="1" page="1" pageScale="1" pageWidth="850" pageHeight="1100" math="1" shadow="0">
      <root>
        <mxCell id="0" />
        <mxCell id="1" parent="0" />
        <mxCell id="hyWGP1_BrydNDejiXZFT-1" value="&amp;nbsp; &amp;nbsp; &amp;nbsp; &amp;nbsp; High-resolution block" style="rounded=1;whiteSpace=wrap;html=1;fillColor=#eeeeee;strokeColor=#36393d;verticalAlign=top;align=left;" parent="1" vertex="1">
          <mxGeometry x="260" y="380" width="300" height="126" as="geometry" />
        </mxCell>
        <mxCell id="hyWGP1_BrydNDejiXZFT-2" value="Low-resolution block" style="rounded=1;whiteSpace=wrap;html=1;fillColor=#eeeeee;strokeColor=#36393d;verticalAlign=top;" parent="1" vertex="1">
          <mxGeometry x="152" y="250" width="658" height="100" as="geometry" />
        </mxCell>
        <mxCell id="hyWGP1_BrydNDejiXZFT-3" value="" style="endArrow=block;html=1;rounded=0;strokeWidth=1;curved=1;entryX=0;entryY=0.5;entryDx=0;entryDy=0;endFill=1;" parent="1" target="hyWGP1_BrydNDejiXZFT-27" edge="1">
          <mxGeometry width="50" height="50" relative="1" as="geometry">
            <mxPoint x="340" y="305" as="sourcePoint" />
            <mxPoint x="378" y="305" as="targetPoint" />
          </mxGeometry>
        </mxCell>
        <mxCell id="hyWGP1_BrydNDejiXZFT-4" value="" style="endArrow=block;html=1;rounded=0;endFill=1;entryX=0;entryY=0.5;entryDx=0;entryDy=0;" parent="1" target="hyWGP1_BrydNDejiXZFT-19" edge="1">
          <mxGeometry width="50" height="50" relative="1" as="geometry">
            <mxPoint x="130" y="305" as="sourcePoint" />
            <mxPoint x="210" y="340" as="targetPoint" />
          </mxGeometry>
        </mxCell>
        <mxCell id="hyWGP1_BrydNDejiXZFT-5" value="" style="group" parent="1" vertex="1" connectable="0">
          <mxGeometry x="80" y="280" width="50" height="85" as="geometry" />
        </mxCell>
        <mxCell id="hyWGP1_BrydNDejiXZFT-6" value="" style="group" parent="hyWGP1_BrydNDejiXZFT-5" vertex="1" connectable="0">
          <mxGeometry width="50" height="60" as="geometry" />
        </mxCell>
        <mxCell id="hyWGP1_BrydNDejiXZFT-7" value="" style="group" parent="hyWGP1_BrydNDejiXZFT-6" vertex="1" connectable="0">
          <mxGeometry width="10" height="50" as="geometry" />
        </mxCell>
        <mxCell id="hyWGP1_BrydNDejiXZFT-8" value="" style="whiteSpace=wrap;html=1;aspect=fixed;fillColor=#FFCCCC;" parent="hyWGP1_BrydNDejiXZFT-7" vertex="1">
          <mxGeometry width="10" height="10" as="geometry" />
        </mxCell>
        <mxCell id="hyWGP1_BrydNDejiXZFT-9" value="" style="whiteSpace=wrap;html=1;aspect=fixed;fillColor=#FF6666;" parent="hyWGP1_BrydNDejiXZFT-7" vertex="1">
          <mxGeometry y="10" width="10" height="10" as="geometry" />
        </mxCell>
        <mxCell id="hyWGP1_BrydNDejiXZFT-10" value="" style="whiteSpace=wrap;html=1;aspect=fixed;fillColor=#FF0000;" parent="hyWGP1_BrydNDejiXZFT-7" vertex="1">
          <mxGeometry y="20" width="10" height="10" as="geometry" />
        </mxCell>
        <mxCell id="hyWGP1_BrydNDejiXZFT-11" value="" style="whiteSpace=wrap;html=1;aspect=fixed;fillColor=#990000;" parent="hyWGP1_BrydNDejiXZFT-7" vertex="1">
          <mxGeometry y="30" width="10" height="10" as="geometry" />
        </mxCell>
        <mxCell id="hyWGP1_BrydNDejiXZFT-12" value="" style="group" parent="hyWGP1_BrydNDejiXZFT-6" vertex="1" connectable="0">
          <mxGeometry x="20" width="10" height="60" as="geometry" />
        </mxCell>
        <mxCell id="hyWGP1_BrydNDejiXZFT-13" value="" style="whiteSpace=wrap;html=1;aspect=fixed;fillColor=#FFFFCC;" parent="hyWGP1_BrydNDejiXZFT-12" vertex="1">
          <mxGeometry width="10" height="10" as="geometry" />
        </mxCell>
        <mxCell id="hyWGP1_BrydNDejiXZFT-14" value="" style="whiteSpace=wrap;html=1;aspect=fixed;fillColor=#FFFF66;" parent="hyWGP1_BrydNDejiXZFT-12" vertex="1">
          <mxGeometry y="10" width="10" height="10" as="geometry" />
        </mxCell>
        <mxCell id="hyWGP1_BrydNDejiXZFT-15" value="" style="whiteSpace=wrap;html=1;aspect=fixed;fillColor=#FFFF00;" parent="hyWGP1_BrydNDejiXZFT-12" vertex="1">
          <mxGeometry y="20" width="10" height="10" as="geometry" />
        </mxCell>
        <mxCell id="hyWGP1_BrydNDejiXZFT-16" value="" style="whiteSpace=wrap;html=1;aspect=fixed;fillColor=#999900;" parent="hyWGP1_BrydNDejiXZFT-12" vertex="1">
          <mxGeometry y="30" width="10" height="10" as="geometry" />
        </mxCell>
        <mxCell id="hyWGP1_BrydNDejiXZFT-17" value="" style="shape=crossbar;whiteSpace=wrap;html=1;rounded=1;fillColor=#FFFFFF;gradientColor=none;" parent="hyWGP1_BrydNDejiXZFT-12" vertex="1">
          <mxGeometry x="-20" y="50" width="30" height="10" as="geometry" />
        </mxCell>
        <mxCell id="hyWGP1_BrydNDejiXZFT-18" value="$$S$$" style="text;html=1;align=center;verticalAlign=middle;resizable=0;points=[];autosize=1;strokeColor=none;fillColor=none;" parent="hyWGP1_BrydNDejiXZFT-5" vertex="1">
          <mxGeometry x="-10" y="60" width="50" height="20" as="geometry" />
        </mxCell>
        <mxCell id="hyWGP1_BrydNDejiXZFT-19" value="Downscaling" style="rounded=1;whiteSpace=wrap;html=1;fillColor=#ffcc99;strokeColor=#36393d;verticalAlign=top;" parent="1" vertex="1">
          <mxGeometry x="170" y="267" width="90" height="76" as="geometry" />
        </mxCell>
        <mxCell id="hyWGP1_BrydNDejiXZFT-20" value="" style="endArrow=block;html=1;rounded=0;endFill=1;exitX=1;exitY=0.5;exitDx=0;exitDy=0;" parent="1" source="hyWGP1_BrydNDejiXZFT-19" edge="1">
          <mxGeometry width="50" height="50" relative="1" as="geometry">
            <mxPoint x="150" y="315" as="sourcePoint" />
            <mxPoint x="290" y="305" as="targetPoint" />
          </mxGeometry>
        </mxCell>
        <mxCell id="hyWGP1_BrydNDejiXZFT-21" value="" style="group" parent="1" vertex="1" connectable="0">
          <mxGeometry x="299" y="295" width="50" height="20" as="geometry" />
        </mxCell>
        <mxCell id="hyWGP1_BrydNDejiXZFT-22" value="" style="whiteSpace=wrap;html=1;aspect=fixed;fillColor=#FF3333;" parent="hyWGP1_BrydNDejiXZFT-21" vertex="1">
          <mxGeometry y="10" width="10" height="10" as="geometry" />
        </mxCell>
        <mxCell id="hyWGP1_BrydNDejiXZFT-23" value="" style="whiteSpace=wrap;html=1;aspect=fixed;fillColor=#FFFF33;" parent="hyWGP1_BrydNDejiXZFT-21" vertex="1">
          <mxGeometry x="20" y="10" width="10" height="10" as="geometry" />
        </mxCell>
        <mxCell id="hyWGP1_BrydNDejiXZFT-24" value="" style="whiteSpace=wrap;html=1;aspect=fixed;fillColor=#FF9999;" parent="hyWGP1_BrydNDejiXZFT-21" vertex="1">
          <mxGeometry width="10" height="10" as="geometry" />
        </mxCell>
        <mxCell id="hyWGP1_BrydNDejiXZFT-25" value="" style="whiteSpace=wrap;html=1;aspect=fixed;fillColor=#FFFF99;" parent="hyWGP1_BrydNDejiXZFT-21" vertex="1">
          <mxGeometry x="20" width="10" height="10" as="geometry" />
        </mxCell>
        <mxCell id="hyWGP1_BrydNDejiXZFT-26" style="edgeStyle=orthogonalEdgeStyle;rounded=0;orthogonalLoop=1;jettySize=auto;html=1;exitX=1;exitY=0.5;exitDx=0;exitDy=0;entryX=0;entryY=0.5;entryDx=0;entryDy=0;endArrow=block;endFill=1;" parent="1" source="hyWGP1_BrydNDejiXZFT-27" target="hyWGP1_BrydNDejiXZFT-30" edge="1">
          <mxGeometry relative="1" as="geometry" />
        </mxCell>
        <mxCell id="hyWGP1_BrydNDejiXZFT-27" value="Encoder" style="rounded=1;whiteSpace=wrap;html=1;fillColor=#cce5ff;strokeColor=#36393d;" parent="1" vertex="1">
          <mxGeometry x="367" y="293.75" width="74" height="22.5" as="geometry" />
        </mxCell>
        <mxCell id="hyWGP1_BrydNDejiXZFT-28" style="edgeStyle=orthogonalEdgeStyle;rounded=0;orthogonalLoop=1;jettySize=auto;html=1;exitX=1;exitY=0.5;exitDx=0;exitDy=0;entryX=0;entryY=0.5;entryDx=0;entryDy=0;endArrow=block;endFill=1;" parent="1" source="hyWGP1_BrydNDejiXZFT-30" target="hyWGP1_BrydNDejiXZFT-32" edge="1">
          <mxGeometry relative="1" as="geometry" />
        </mxCell>
        <mxCell id="hyWGP1_BrydNDejiXZFT-29" style="edgeStyle=orthogonalEdgeStyle;rounded=0;orthogonalLoop=1;jettySize=auto;html=1;exitX=0.5;exitY=0;exitDx=0;exitDy=0;endArrow=none;endFill=0;startArrow=block;startFill=1;" parent="1" source="hyWGP1_BrydNDejiXZFT-59" edge="1">
          <mxGeometry relative="1" as="geometry">
            <mxPoint x="880" y="333" as="targetPoint" />
            <Array as="points">
              <mxPoint x="427" y="370" />
              <mxPoint x="880" y="370" />
            </Array>
          </mxGeometry>
        </mxCell>
        <mxCell id="JHPlqV03P5lDHO5sLnH1-1" style="edgeStyle=orthogonalEdgeStyle;rounded=0;orthogonalLoop=1;jettySize=auto;html=1;exitX=0.5;exitY=1;exitDx=0;exitDy=0;endArrow=none;endFill=0;startArrow=block;startFill=1;" edge="1" parent="1" source="hyWGP1_BrydNDejiXZFT-30">
          <mxGeometry relative="1" as="geometry">
            <mxPoint x="658" y="323" as="targetPoint" />
            <Array as="points">
              <mxPoint x="500" y="336" />
              <mxPoint x="658" y="336" />
            </Array>
          </mxGeometry>
        </mxCell>
        <mxCell id="hyWGP1_BrydNDejiXZFT-30" value="Decoder" style="rounded=1;whiteSpace=wrap;html=1;fillColor=#cce5ff;strokeColor=#36393d;" parent="1" vertex="1">
          <mxGeometry x="463" y="293.75" width="74" height="22.5" as="geometry" />
        </mxCell>
        <mxCell id="hyWGP1_BrydNDejiXZFT-31" style="edgeStyle=orthogonalEdgeStyle;rounded=0;orthogonalLoop=1;jettySize=auto;html=1;exitX=1;exitY=0.5;exitDx=0;exitDy=0;endArrow=block;endFill=1;" parent="1" source="hyWGP1_BrydNDejiXZFT-32" edge="1">
          <mxGeometry relative="1" as="geometry">
            <mxPoint x="630" y="305" as="targetPoint" />
          </mxGeometry>
        </mxCell>
        <mxCell id="hyWGP1_BrydNDejiXZFT-32" value="Linear" style="rounded=1;whiteSpace=wrap;html=1;fillColor=#cce5ff;strokeColor=#36393d;" parent="1" vertex="1">
          <mxGeometry x="564" y="293.75" width="50" height="22.5" as="geometry" />
        </mxCell>
        <mxCell id="hyWGP1_BrydNDejiXZFT-33" style="edgeStyle=orthogonalEdgeStyle;rounded=0;orthogonalLoop=1;jettySize=auto;html=1;exitX=1;exitY=0.5;exitDx=0;exitDy=0;endArrow=block;endFill=1;" parent="1" edge="1">
          <mxGeometry relative="1" as="geometry">
            <mxPoint x="840" y="305" as="targetPoint" />
            <mxPoint x="800" y="304.9999999999999" as="sourcePoint" />
          </mxGeometry>
        </mxCell>
        <mxCell id="hyWGP1_BrydNDejiXZFT-34" value="" style="shape=crossbar;whiteSpace=wrap;html=1;rounded=1;fillColor=#FFFFFF;gradientColor=none;" parent="1" vertex="1">
          <mxGeometry x="853" y="270" width="50" height="10" as="geometry" />
        </mxCell>
        <mxCell id="hyWGP1_BrydNDejiXZFT-35" value="$$H$$" style="text;html=1;align=center;verticalAlign=middle;resizable=0;points=[];autosize=1;strokeColor=none;fillColor=none;" parent="1" vertex="1">
          <mxGeometry x="853" y="250" width="50" height="20" as="geometry" />
        </mxCell>
        <mxCell id="hyWGP1_BrydNDejiXZFT-36" value="" style="group" parent="1" vertex="1" connectable="0">
          <mxGeometry x="634" y="295" width="50" height="20" as="geometry" />
        </mxCell>
        <mxCell id="hyWGP1_BrydNDejiXZFT-37" value="" style="whiteSpace=wrap;html=1;aspect=fixed;fillColor=#33FF33;" parent="hyWGP1_BrydNDejiXZFT-36" vertex="1">
          <mxGeometry y="10" width="10" height="10" as="geometry" />
        </mxCell>
        <mxCell id="hyWGP1_BrydNDejiXZFT-38" value="" style="whiteSpace=wrap;html=1;aspect=fixed;fillColor=#CCFFCC;" parent="hyWGP1_BrydNDejiXZFT-36" vertex="1">
          <mxGeometry width="10" height="10" as="geometry" />
        </mxCell>
        <mxCell id="hyWGP1_BrydNDejiXZFT-39" value="" style="whiteSpace=wrap;html=1;aspect=fixed;fillColor=#FFFF33;" parent="hyWGP1_BrydNDejiXZFT-36" vertex="1">
          <mxGeometry x="20" y="10" width="10" height="10" as="geometry" />
        </mxCell>
        <mxCell id="hyWGP1_BrydNDejiXZFT-40" value="" style="whiteSpace=wrap;html=1;aspect=fixed;fillColor=#FFFF99;" parent="hyWGP1_BrydNDejiXZFT-36" vertex="1">
          <mxGeometry x="20" width="10" height="10" as="geometry" />
        </mxCell>
        <mxCell id="hyWGP1_BrydNDejiXZFT-41" value="" style="whiteSpace=wrap;html=1;aspect=fixed;fillColor=#FF3333;" parent="hyWGP1_BrydNDejiXZFT-36" vertex="1">
          <mxGeometry x="40" y="10" width="10" height="10" as="geometry" />
        </mxCell>
        <mxCell id="hyWGP1_BrydNDejiXZFT-42" value="" style="whiteSpace=wrap;html=1;aspect=fixed;fillColor=#FF9999;" parent="hyWGP1_BrydNDejiXZFT-36" vertex="1">
          <mxGeometry x="40" width="10" height="10" as="geometry" />
        </mxCell>
        <mxCell id="hyWGP1_BrydNDejiXZFT-43" value="" style="endArrow=block;html=1;rounded=0;strokeWidth=1;curved=1;entryX=0;entryY=0.5;entryDx=0;entryDy=0;endFill=1;" parent="1" edge="1">
          <mxGeometry width="50" height="50" relative="1" as="geometry">
            <mxPoint x="690" y="305" as="sourcePoint" />
            <mxPoint x="710" y="304.9999999999999" as="targetPoint" />
          </mxGeometry>
        </mxCell>
        <mxCell id="hyWGP1_BrydNDejiXZFT-44" value="" style="whiteSpace=wrap;html=1;aspect=fixed;fillColor=#CCFFCC;" parent="1" vertex="1">
          <mxGeometry x="853" y="285" width="10" height="10" as="geometry" />
        </mxCell>
        <mxCell id="hyWGP1_BrydNDejiXZFT-45" value="" style="whiteSpace=wrap;html=1;aspect=fixed;fillColor=#CCFFCC;" parent="1" vertex="1">
          <mxGeometry x="853" y="295" width="10" height="10" as="geometry" />
        </mxCell>
        <mxCell id="hyWGP1_BrydNDejiXZFT-46" value="" style="whiteSpace=wrap;html=1;aspect=fixed;fillColor=#00FF00;" parent="1" vertex="1">
          <mxGeometry x="853" y="305" width="10" height="10" as="geometry" />
        </mxCell>
        <mxCell id="hyWGP1_BrydNDejiXZFT-47" value="" style="whiteSpace=wrap;html=1;aspect=fixed;fillColor=#00FF00;" parent="1" vertex="1">
          <mxGeometry x="853" y="315" width="10" height="10" as="geometry" />
        </mxCell>
        <mxCell id="hyWGP1_BrydNDejiXZFT-48" value="" style="whiteSpace=wrap;html=1;aspect=fixed;fillColor=#FFFFCC;" parent="1" vertex="1">
          <mxGeometry x="873" y="285" width="10" height="10" as="geometry" />
        </mxCell>
        <mxCell id="hyWGP1_BrydNDejiXZFT-49" value="" style="whiteSpace=wrap;html=1;aspect=fixed;fillColor=#FFFFCC;" parent="1" vertex="1">
          <mxGeometry x="873" y="295" width="10" height="10" as="geometry" />
        </mxCell>
        <mxCell id="hyWGP1_BrydNDejiXZFT-50" value="" style="whiteSpace=wrap;html=1;aspect=fixed;fillColor=#FFFF00;" parent="1" vertex="1">
          <mxGeometry x="873" y="305" width="10" height="10" as="geometry" />
        </mxCell>
        <mxCell id="hyWGP1_BrydNDejiXZFT-51" value="" style="whiteSpace=wrap;html=1;aspect=fixed;fillColor=#FFFF00;" parent="1" vertex="1">
          <mxGeometry x="873" y="315" width="10" height="10" as="geometry" />
        </mxCell>
        <mxCell id="hyWGP1_BrydNDejiXZFT-52" value="" style="whiteSpace=wrap;html=1;aspect=fixed;fillColor=#FFCCCC;" parent="1" vertex="1">
          <mxGeometry x="893" y="285" width="10" height="10" as="geometry" />
        </mxCell>
        <mxCell id="hyWGP1_BrydNDejiXZFT-53" value="" style="whiteSpace=wrap;html=1;aspect=fixed;fillColor=#FFCCCC;" parent="1" vertex="1">
          <mxGeometry x="893" y="295" width="10" height="10" as="geometry" />
        </mxCell>
        <mxCell id="hyWGP1_BrydNDejiXZFT-54" value="" style="whiteSpace=wrap;html=1;aspect=fixed;fillColor=#FF0000;" parent="1" vertex="1">
          <mxGeometry x="893" y="305" width="10" height="10" as="geometry" />
        </mxCell>
        <mxCell id="hyWGP1_BrydNDejiXZFT-55" value="" style="whiteSpace=wrap;html=1;aspect=fixed;fillColor=#FF0000;" parent="1" vertex="1">
          <mxGeometry x="893" y="315" width="10" height="10" as="geometry" />
        </mxCell>
        <mxCell id="hyWGP1_BrydNDejiXZFT-56" style="edgeStyle=orthogonalEdgeStyle;rounded=0;orthogonalLoop=1;jettySize=auto;html=1;exitX=1;exitY=0.5;exitDx=0;exitDy=0;entryX=0;entryY=0.5;entryDx=0;entryDy=0;endArrow=block;endFill=1;" parent="1" source="hyWGP1_BrydNDejiXZFT-57" target="hyWGP1_BrydNDejiXZFT-59" edge="1">
          <mxGeometry relative="1" as="geometry" />
        </mxCell>
        <mxCell id="hyWGP1_BrydNDejiXZFT-57" value="Encoder" style="rounded=1;whiteSpace=wrap;html=1;fillColor=#cce5ff;strokeColor=#36393d;verticalAlign=top;" parent="1" vertex="1">
          <mxGeometry x="290" y="412.5" width="74" height="77.5" as="geometry" />
        </mxCell>
        <mxCell id="hyWGP1_BrydNDejiXZFT-58" style="edgeStyle=orthogonalEdgeStyle;rounded=0;orthogonalLoop=1;jettySize=auto;html=1;exitX=1;exitY=0.5;exitDx=0;exitDy=0;entryX=0;entryY=0.5;entryDx=0;entryDy=0;endArrow=block;endFill=1;" parent="1" source="hyWGP1_BrydNDejiXZFT-59" target="hyWGP1_BrydNDejiXZFT-61" edge="1">
          <mxGeometry relative="1" as="geometry" />
        </mxCell>
        <mxCell id="hyWGP1_BrydNDejiXZFT-59" value="Decoder" style="rounded=1;whiteSpace=wrap;html=1;fillColor=#cce5ff;strokeColor=#36393d;verticalAlign=top;" parent="1" vertex="1">
          <mxGeometry x="390" y="412.5" width="74" height="77.5" as="geometry" />
        </mxCell>
        <mxCell id="hyWGP1_BrydNDejiXZFT-60" style="edgeStyle=orthogonalEdgeStyle;rounded=0;orthogonalLoop=1;jettySize=auto;html=1;exitX=1;exitY=0.5;exitDx=0;exitDy=0;endArrow=block;endFill=1;" parent="1" source="hyWGP1_BrydNDejiXZFT-61" edge="1">
          <mxGeometry relative="1" as="geometry">
            <mxPoint x="580" y="451" as="targetPoint" />
          </mxGeometry>
        </mxCell>
        <mxCell id="hyWGP1_BrydNDejiXZFT-61" value="Linear" style="rounded=1;whiteSpace=wrap;html=1;fillColor=#cce5ff;strokeColor=#36393d;" parent="1" vertex="1">
          <mxGeometry x="490" y="440" width="50" height="22.5" as="geometry" />
        </mxCell>
        <mxCell id="hyWGP1_BrydNDejiXZFT-62" value="" style="group" parent="1" vertex="1" connectable="0">
          <mxGeometry x="307.11" y="440" width="37.78" height="40" as="geometry" />
        </mxCell>
        <mxCell id="hyWGP1_BrydNDejiXZFT-63" value="" style="ellipse;whiteSpace=wrap;html=1;aspect=fixed;fillColor=#000000;" parent="hyWGP1_BrydNDejiXZFT-62" vertex="1">
          <mxGeometry x="16.66764705882353" y="15.555555555555555" width="8.88864283649203" height="8.88864283649203" as="geometry" />
        </mxCell>
        <mxCell id="hyWGP1_BrydNDejiXZFT-64" value="" style="ellipse;whiteSpace=wrap;html=1;aspect=fixed;" parent="hyWGP1_BrydNDejiXZFT-62" vertex="1">
          <mxGeometry y="15.555555555555555" width="8.88864283649203" height="8.88864283649203" as="geometry" />
        </mxCell>
        <mxCell id="hyWGP1_BrydNDejiXZFT-65" value="" style="edgeStyle=none;rounded=0;orthogonalLoop=1;jettySize=auto;html=1;endArrow=none;endFill=0;" parent="hyWGP1_BrydNDejiXZFT-62" source="hyWGP1_BrydNDejiXZFT-63" target="hyWGP1_BrydNDejiXZFT-64" edge="1">
          <mxGeometry relative="1" as="geometry" />
        </mxCell>
        <mxCell id="hyWGP1_BrydNDejiXZFT-66" style="rounded=0;orthogonalLoop=1;jettySize=auto;html=1;exitX=1;exitY=0.5;exitDx=0;exitDy=0;endArrow=none;endFill=0;" parent="hyWGP1_BrydNDejiXZFT-62" source="hyWGP1_BrydNDejiXZFT-64" edge="1">
          <mxGeometry relative="1" as="geometry">
            <mxPoint x="15.556470588235298" y="20" as="targetPoint" />
          </mxGeometry>
        </mxCell>
        <mxCell id="hyWGP1_BrydNDejiXZFT-67" value="" style="ellipse;whiteSpace=wrap;html=1;aspect=fixed;" parent="hyWGP1_BrydNDejiXZFT-62" vertex="1">
          <mxGeometry x="28.890588235294118" y="3.333333333333333" width="8.88864283649203" height="8.88864283649203" as="geometry" />
        </mxCell>
        <mxCell id="hyWGP1_BrydNDejiXZFT-68" style="edgeStyle=none;rounded=0;orthogonalLoop=1;jettySize=auto;html=1;exitX=1;exitY=0;exitDx=0;exitDy=0;entryX=0;entryY=1;entryDx=0;entryDy=0;endArrow=none;endFill=0;" parent="hyWGP1_BrydNDejiXZFT-62" source="hyWGP1_BrydNDejiXZFT-63" target="hyWGP1_BrydNDejiXZFT-67" edge="1">
          <mxGeometry relative="1" as="geometry" />
        </mxCell>
        <mxCell id="hyWGP1_BrydNDejiXZFT-69" style="edgeStyle=none;rounded=0;orthogonalLoop=1;jettySize=auto;html=1;exitX=0.5;exitY=0;exitDx=0;exitDy=0;entryX=0.5;entryY=1;entryDx=0;entryDy=0;endArrow=none;endFill=0;" parent="hyWGP1_BrydNDejiXZFT-62" source="hyWGP1_BrydNDejiXZFT-70" target="hyWGP1_BrydNDejiXZFT-63" edge="1">
          <mxGeometry relative="1" as="geometry" />
        </mxCell>
        <mxCell id="hyWGP1_BrydNDejiXZFT-70" value="" style="ellipse;whiteSpace=wrap;html=1;aspect=fixed;fillColor=#000000;" parent="hyWGP1_BrydNDejiXZFT-62" vertex="1">
          <mxGeometry x="17.778823529411763" y="31.11111111111111" width="8.88864283649203" height="8.88864283649203" as="geometry" />
        </mxCell>
        <mxCell id="hyWGP1_BrydNDejiXZFT-71" style="edgeStyle=none;rounded=0;orthogonalLoop=1;jettySize=auto;html=1;entryX=0;entryY=0.5;entryDx=0;entryDy=0;endArrow=none;endFill=0;" parent="hyWGP1_BrydNDejiXZFT-62" source="hyWGP1_BrydNDejiXZFT-63" target="hyWGP1_BrydNDejiXZFT-63" edge="1">
          <mxGeometry relative="1" as="geometry" />
        </mxCell>
        <mxCell id="hyWGP1_BrydNDejiXZFT-72" value="" style="ellipse;whiteSpace=wrap;html=1;aspect=fixed;fillColor=#000000;" parent="hyWGP1_BrydNDejiXZFT-62" vertex="1">
          <mxGeometry x="28.890588235294118" y="3.333333333333333" width="8.88864283649203" height="8.88864283649203" as="geometry" />
        </mxCell>
        <mxCell id="hyWGP1_BrydNDejiXZFT-73" value="" style="ellipse;whiteSpace=wrap;html=1;aspect=fixed;fillColor=#000000;" parent="hyWGP1_BrydNDejiXZFT-62" vertex="1">
          <mxGeometry y="15.555555555555555" width="8.88864283649203" height="8.88864283649203" as="geometry" />
        </mxCell>
        <mxCell id="hyWGP1_BrydNDejiXZFT-74" value="" style="group" parent="1" vertex="1" connectable="0">
          <mxGeometry x="407" y="440" width="37.78" height="40" as="geometry" />
        </mxCell>
        <mxCell id="hyWGP1_BrydNDejiXZFT-75" value="" style="ellipse;whiteSpace=wrap;html=1;aspect=fixed;fillColor=#000000;" parent="hyWGP1_BrydNDejiXZFT-74" vertex="1">
          <mxGeometry x="16.66764705882353" y="15.555555555555555" width="8.88864283649203" height="8.88864283649203" as="geometry" />
        </mxCell>
        <mxCell id="hyWGP1_BrydNDejiXZFT-76" value="" style="ellipse;whiteSpace=wrap;html=1;aspect=fixed;" parent="hyWGP1_BrydNDejiXZFT-74" vertex="1">
          <mxGeometry y="15.555555555555555" width="8.88864283649203" height="8.88864283649203" as="geometry" />
        </mxCell>
        <mxCell id="hyWGP1_BrydNDejiXZFT-77" value="" style="edgeStyle=none;rounded=0;orthogonalLoop=1;jettySize=auto;html=1;endArrow=none;endFill=0;" parent="hyWGP1_BrydNDejiXZFT-74" source="hyWGP1_BrydNDejiXZFT-75" target="hyWGP1_BrydNDejiXZFT-76" edge="1">
          <mxGeometry relative="1" as="geometry" />
        </mxCell>
        <mxCell id="hyWGP1_BrydNDejiXZFT-78" style="rounded=0;orthogonalLoop=1;jettySize=auto;html=1;exitX=1;exitY=0.5;exitDx=0;exitDy=0;endArrow=none;endFill=0;" parent="hyWGP1_BrydNDejiXZFT-74" source="hyWGP1_BrydNDejiXZFT-76" edge="1">
          <mxGeometry relative="1" as="geometry">
            <mxPoint x="15.556470588235298" y="20" as="targetPoint" />
          </mxGeometry>
        </mxCell>
        <mxCell id="hyWGP1_BrydNDejiXZFT-79" value="" style="ellipse;whiteSpace=wrap;html=1;aspect=fixed;" parent="hyWGP1_BrydNDejiXZFT-74" vertex="1">
          <mxGeometry x="28.890588235294118" y="3.333333333333333" width="8.88864283649203" height="8.88864283649203" as="geometry" />
        </mxCell>
        <mxCell id="hyWGP1_BrydNDejiXZFT-80" style="edgeStyle=none;rounded=0;orthogonalLoop=1;jettySize=auto;html=1;exitX=1;exitY=0;exitDx=0;exitDy=0;entryX=0;entryY=1;entryDx=0;entryDy=0;endArrow=none;endFill=0;" parent="hyWGP1_BrydNDejiXZFT-74" source="hyWGP1_BrydNDejiXZFT-75" target="hyWGP1_BrydNDejiXZFT-79" edge="1">
          <mxGeometry relative="1" as="geometry" />
        </mxCell>
        <mxCell id="hyWGP1_BrydNDejiXZFT-81" style="edgeStyle=none;rounded=0;orthogonalLoop=1;jettySize=auto;html=1;exitX=0.5;exitY=0;exitDx=0;exitDy=0;entryX=0.5;entryY=1;entryDx=0;entryDy=0;endArrow=none;endFill=0;" parent="hyWGP1_BrydNDejiXZFT-74" source="hyWGP1_BrydNDejiXZFT-82" target="hyWGP1_BrydNDejiXZFT-75" edge="1">
          <mxGeometry relative="1" as="geometry" />
        </mxCell>
        <mxCell id="hyWGP1_BrydNDejiXZFT-82" value="" style="ellipse;whiteSpace=wrap;html=1;aspect=fixed;fillColor=#000000;" parent="hyWGP1_BrydNDejiXZFT-74" vertex="1">
          <mxGeometry x="17.778823529411763" y="31.11111111111111" width="8.88864283649203" height="8.88864283649203" as="geometry" />
        </mxCell>
        <mxCell id="hyWGP1_BrydNDejiXZFT-83" style="edgeStyle=none;rounded=0;orthogonalLoop=1;jettySize=auto;html=1;entryX=0;entryY=0.5;entryDx=0;entryDy=0;endArrow=none;endFill=0;" parent="hyWGP1_BrydNDejiXZFT-74" source="hyWGP1_BrydNDejiXZFT-75" target="hyWGP1_BrydNDejiXZFT-75" edge="1">
          <mxGeometry relative="1" as="geometry" />
        </mxCell>
        <mxCell id="hyWGP1_BrydNDejiXZFT-84" value="" style="ellipse;whiteSpace=wrap;html=1;aspect=fixed;fillColor=#000000;" parent="hyWGP1_BrydNDejiXZFT-74" vertex="1">
          <mxGeometry x="28.890588235294118" y="3.333333333333333" width="8.88864283649203" height="8.88864283649203" as="geometry" />
        </mxCell>
        <mxCell id="hyWGP1_BrydNDejiXZFT-85" value="" style="ellipse;whiteSpace=wrap;html=1;aspect=fixed;fillColor=#000000;" parent="hyWGP1_BrydNDejiXZFT-74" vertex="1">
          <mxGeometry y="15.555555555555555" width="8.88864283649203" height="8.88864283649203" as="geometry" />
        </mxCell>
        <mxCell id="hyWGP1_BrydNDejiXZFT-86" value="" style="shape=crossbar;whiteSpace=wrap;html=1;rounded=1;fillColor=#FFFFFF;gradientColor=none;" parent="1" vertex="1">
          <mxGeometry x="590" y="420" width="50" height="10" as="geometry" />
        </mxCell>
        <mxCell id="hyWGP1_BrydNDejiXZFT-87" value="$$H$$" style="text;html=1;align=center;verticalAlign=middle;resizable=0;points=[];autosize=1;strokeColor=none;fillColor=none;" parent="1" vertex="1">
          <mxGeometry x="590" y="400" width="50" height="20" as="geometry" />
        </mxCell>
        <mxCell id="hyWGP1_BrydNDejiXZFT-88" value="" style="whiteSpace=wrap;html=1;aspect=fixed;fillColor=#CCFFCC;" parent="1" vertex="1">
          <mxGeometry x="590" y="435" width="10" height="10" as="geometry" />
        </mxCell>
        <mxCell id="hyWGP1_BrydNDejiXZFT-89" value="" style="whiteSpace=wrap;html=1;aspect=fixed;fillColor=#E6FFCC;" parent="1" vertex="1">
          <mxGeometry x="590" y="445" width="10" height="10" as="geometry" />
        </mxCell>
        <mxCell id="hyWGP1_BrydNDejiXZFT-90" value="" style="whiteSpace=wrap;html=1;aspect=fixed;fillColor=#00FF00;" parent="1" vertex="1">
          <mxGeometry x="590" y="455" width="10" height="10" as="geometry" />
        </mxCell>
        <mxCell id="hyWGP1_BrydNDejiXZFT-91" value="" style="whiteSpace=wrap;html=1;aspect=fixed;fillColor=#80FF00;" parent="1" vertex="1">
          <mxGeometry x="590" y="465" width="10" height="10" as="geometry" />
        </mxCell>
        <mxCell id="hyWGP1_BrydNDejiXZFT-92" value="" style="whiteSpace=wrap;html=1;aspect=fixed;fillColor=#FFFFCC;" parent="1" vertex="1">
          <mxGeometry x="610" y="435" width="10" height="10" as="geometry" />
        </mxCell>
        <mxCell id="hyWGP1_BrydNDejiXZFT-93" value="" style="whiteSpace=wrap;html=1;aspect=fixed;fillColor=#FFB366;" parent="1" vertex="1">
          <mxGeometry x="610" y="445" width="10" height="10" as="geometry" />
        </mxCell>
        <mxCell id="hyWGP1_BrydNDejiXZFT-94" value="" style="whiteSpace=wrap;html=1;aspect=fixed;fillColor=#FFFF00;" parent="1" vertex="1">
          <mxGeometry x="610" y="455" width="10" height="10" as="geometry" />
        </mxCell>
        <mxCell id="hyWGP1_BrydNDejiXZFT-95" value="" style="whiteSpace=wrap;html=1;aspect=fixed;fillColor=#CCCC00;" parent="1" vertex="1">
          <mxGeometry x="610" y="465" width="10" height="10" as="geometry" />
        </mxCell>
        <mxCell id="hyWGP1_BrydNDejiXZFT-96" value="" style="whiteSpace=wrap;html=1;aspect=fixed;fillColor=#FFCCCC;" parent="1" vertex="1">
          <mxGeometry x="630" y="435" width="10" height="10" as="geometry" />
        </mxCell>
        <mxCell id="hyWGP1_BrydNDejiXZFT-97" value="" style="whiteSpace=wrap;html=1;aspect=fixed;fillColor=#FF9999;" parent="1" vertex="1">
          <mxGeometry x="630" y="445" width="10" height="10" as="geometry" />
        </mxCell>
        <mxCell id="hyWGP1_BrydNDejiXZFT-98" value="" style="whiteSpace=wrap;html=1;aspect=fixed;fillColor=#FF0000;" parent="1" vertex="1">
          <mxGeometry x="630" y="455" width="10" height="10" as="geometry" />
        </mxCell>
        <mxCell id="hyWGP1_BrydNDejiXZFT-99" value="" style="whiteSpace=wrap;html=1;aspect=fixed;fillColor=#CC6600;" parent="1" vertex="1">
          <mxGeometry x="630" y="465" width="10" height="10" as="geometry" />
        </mxCell>
        <mxCell id="hyWGP1_BrydNDejiXZFT-100" value="" style="endArrow=block;html=1;rounded=0;edgeStyle=orthogonalEdgeStyle;entryX=0;entryY=0.5;entryDx=0;entryDy=0;endFill=1;" parent="1" target="hyWGP1_BrydNDejiXZFT-57" edge="1">
          <mxGeometry width="50" height="50" relative="1" as="geometry">
            <mxPoint x="140" y="305" as="sourcePoint" />
            <mxPoint x="259.97" y="465" as="targetPoint" />
            <Array as="points">
              <mxPoint x="140" y="310" />
              <mxPoint x="140" y="451" />
            </Array>
          </mxGeometry>
        </mxCell>
        <mxCell id="hyWGP1_BrydNDejiXZFT-102" style="edgeStyle=orthogonalEdgeStyle;rounded=0;orthogonalLoop=1;jettySize=auto;html=1;exitX=0.5;exitY=1;exitDx=0;exitDy=0;endArrow=none;endFill=0;startArrow=block;startFill=1;" parent="1" source="hyWGP1_BrydNDejiXZFT-59" edge="1">
          <mxGeometry relative="1" as="geometry">
            <mxPoint x="615" y="490" as="targetPoint" />
            <mxPoint x="440" y="500" as="sourcePoint" />
            <Array as="points">
              <mxPoint x="427" y="517" />
              <mxPoint x="615" y="517" />
            </Array>
          </mxGeometry>
        </mxCell>
        <mxCell id="hyWGP1_BrydNDejiXZFT-103" value="" style="group" parent="1" vertex="1" connectable="0">
          <mxGeometry x="193.28444444444438" y="293.75" width="43.42592592592598" height="43.24768518518516" as="geometry" />
        </mxCell>
        <mxCell id="hyWGP1_BrydNDejiXZFT-104" value="" style="group" parent="hyWGP1_BrydNDejiXZFT-103" vertex="1" connectable="0">
          <mxGeometry x="2.5555555555556566" width="37.78" height="40" as="geometry" />
        </mxCell>
        <mxCell id="hyWGP1_BrydNDejiXZFT-105" value="" style="ellipse;whiteSpace=wrap;html=1;aspect=fixed;fillColor=#000000;" parent="hyWGP1_BrydNDejiXZFT-104" vertex="1">
          <mxGeometry x="16.66764705882353" y="15.555555555555555" width="8.88864283649203" height="8.88864283649203" as="geometry" />
        </mxCell>
        <mxCell id="hyWGP1_BrydNDejiXZFT-106" value="" style="ellipse;whiteSpace=wrap;html=1;aspect=fixed;" parent="hyWGP1_BrydNDejiXZFT-104" vertex="1">
          <mxGeometry y="15.555555555555555" width="8.88864283649203" height="8.88864283649203" as="geometry" />
        </mxCell>
        <mxCell id="hyWGP1_BrydNDejiXZFT-107" value="" style="ellipse;whiteSpace=wrap;html=1;aspect=fixed;" parent="hyWGP1_BrydNDejiXZFT-104" vertex="1">
          <mxGeometry x="28.890588235294118" y="3.333333333333333" width="8.88864283649203" height="8.88864283649203" as="geometry" />
        </mxCell>
        <mxCell id="hyWGP1_BrydNDejiXZFT-108" value="" style="ellipse;whiteSpace=wrap;html=1;aspect=fixed;fillColor=#FFFFFF;" parent="hyWGP1_BrydNDejiXZFT-104" vertex="1">
          <mxGeometry x="17.778823529411763" y="31.11111111111111" width="8.88864283649203" height="8.88864283649203" as="geometry" />
        </mxCell>
        <mxCell id="hyWGP1_BrydNDejiXZFT-109" style="edgeStyle=none;rounded=0;orthogonalLoop=1;jettySize=auto;html=1;entryX=0;entryY=0.5;entryDx=0;entryDy=0;endArrow=none;endFill=0;" parent="hyWGP1_BrydNDejiXZFT-104" source="hyWGP1_BrydNDejiXZFT-105" target="hyWGP1_BrydNDejiXZFT-105" edge="1">
          <mxGeometry relative="1" as="geometry" />
        </mxCell>
        <mxCell id="hyWGP1_BrydNDejiXZFT-110" value="" style="ellipse;whiteSpace=wrap;html=1;aspect=fixed;fillColor=#000000;" parent="hyWGP1_BrydNDejiXZFT-104" vertex="1">
          <mxGeometry x="28.890588235294118" y="3.333333333333333" width="8.88864283649203" height="8.88864283649203" as="geometry" />
        </mxCell>
        <mxCell id="hyWGP1_BrydNDejiXZFT-111" value="" style="ellipse;whiteSpace=wrap;html=1;aspect=fixed;fillColor=#FFFFFF;" parent="hyWGP1_BrydNDejiXZFT-104" vertex="1">
          <mxGeometry y="15.555555555555555" width="8.88864283649203" height="8.88864283649203" as="geometry" />
        </mxCell>
        <mxCell id="hyWGP1_BrydNDejiXZFT-112" value="" style="shape=stencil(lZzZ0hvHDYWf5r+d6n25dpz3cJXlSBVFcslylrcPOkoPyYPhR+lO+okz7OkFODhA8y3/9Mf7X35/95bCH1+/fP77u399+PXr+7f8l7eUPnx6/+7Lh6/2r7f881v+6bfPX9797cvnPz/9+u3/v/+yLNe//vH5n+sJ//6Gi+noaaFS+M+3v9Rw5P6/v/z1G+Djh0+PgP9/fAfoGQDxaO0REI8aAGDPq4+AdNSCgFweAfkI6TlgHi2r/YQRjWPKHJVjwPPHkeSN69Hnc/t+VHnhdoxK9jE+2vejwfjb0cV+7Bl7Yp9l/PMI+PwY1L7B/NRjPM5/C0eE+alH7Wrf8fn5cTwtHimSfUxq32A8Ze+W0z4dcZB9G2rfYT7LUWQ8+Uj4fNkPZj9g/PapjL8cFeYnH2U+2tuMgY/Iezbu7AfY22yIfTsquJR0FNk/diLgvCS3vh33TzzG4/5vdqLh+VH9idl3WK94FHn+PDLMf9yrf2dP/iTqeewB90/c3vLOfsB47NPH8fS4d+wTe3HoPR0BxhM0Ypg9vW/Yu+W0z0fF5xeZn4IxL+zVOe0r+hObbZnPdgTYP+b9stoPHH94PI+97x34zP4xPnbz//x8mZ+5R/jd9rxeYj9sRXA+vf3k8T++74jo39x8Dtuf+L7i38y+4fNl/wzzkBB/g/pbs6d46s7LKEdoP3B+zR4Z2faud/aTCJlSxFFxvzn/afbEr6LG39E243ri/1NU+47xoj6e39GPhPFrdLUfMJ95P+205/Noq+/sJ4zf8YEx9xs9sRf+OQP6K1v9qfbkb231xT7i/qw6n5MzBsdXzX6C/2mbHZ32J6N4wrclXpv9hPM+1J9PY1BwXoaeR7OfsN+m7of54vza8sgL1CNQkmfxfCig0Yk/M7QT0DBERtvTVQHIaYqSiNmZNNXNYe4AdOpjUxo6B9LKaM9rCsB1GDtTvgMQ0Ypzx5UTMJE5pTOQ3gGIui7f3hRAZ8GTYwNUcr7p4h0ou1rphgNQODB/lIIC6HwuB+beYdI7VM2gYwiYEpuPEZ/xEtEvVgLfojs3+WKehvIKA3Q41eZoJPCvpaN3sOe5IRXKFIOmcgbIFDrjZk7feSIMMOQdxt7B14DkouFAdp2zyj0GoHQiGzuLCoiUfxcV6eYLglH3rN8BCikCbSf0dwCSNHJzMathjp+7kjwDVAKcnOg+pNDCTaXlFrSIJhlgdgXQ9i7BbW9LBEkois73FVRmSnJHlEN7yUfOCogEKBfkhMKiATw7yQSomwze0yUCNPcOCUNK6fvI3wEiEdy+ucUdQ2ykqJmrrApI4CrLVI1pBp7W6bjAKRtck+KwOeQdqycVsfq0beIsGUAYk+UZlDfXpG7GEp8JrrJm9d4GyDQkJ1Va6tYodXDaqQEo7Naqe2klq7DSS8uXIRVWo116MviI1q56nOX/pIcu+V+mNe2SxTXAVSgMgC/tUpQRty+8BkxNCAyQKIcLSuJGwLBrgJEUQFlri3qA+txpzjUgaZzuAxmZASTG9ReFlqzKRD9zimeAXhSQaJaKag39rAY9A6hY25AJtKrqdK+ohjWXmPXC6XpTkrj0Wnrp7hYu80v3ra/dAeiIroKArEPCFL8NTZt6RLLepqbg/UzVrkWKcKH6U9nUPhYZoU2UHXrUI7oGSd8QNcataaBvSOqXGh8gA4zHdVilHfoGl1wagPySbbUg79BQjDVACwogv2THxZfLSK4zgBxRO7REsOwEiyDbChZsDCAKX8uYcKwChCtBkl8yxyh+aTlPGtLYzOIERMzZzblLUFxVYJil4XJRCzHEvVdEkz6CiW5mlRUe3cyKqzBLBhCvYaGeXKURBSEntWNqeVP+T0DDhTN2lKRZobK4eSZhJ6Bs7e8a0NQZLxZIgK4RqLL3XixVGkbS5mjXgKEC6uphIYDLRSuXVA0gRNcAJNHOoGfaMgqi0gaQdbAkh+L0dCKwpVFEf2ZUWc0AdOKmy3YtFaywvVciKUOqrJRnTQcMUGBrGEBY5cp/4TxYui3NJgYg5dsAkotaDl9plqq6ypJQRDCA6NKF+1NmU+mxRIxABpAYVwKKarNrCbcEDLtL3H+cpTyRzdzE/RMwsIg+x65B3QESvfTQE5c7OoGbbngCGtZNDSCFzdxQSVzapwypYpxe1YCpAHL3N/32BBT2GlO3xpI76aWdEJIzqg43lfsEJGwHuOnodwDqN7hVA05A5OJUcC0KS6imkvcFIqBUfoG4ye0/gKDGyCvEwP1xheiYVV8hGneQXiAqrvg1Iv0goqA+fYXISMP9tlqdAOTIp1Z4VjGNd7qUMFPiTtipZdjVvEE+be6zeQICqpCrnvPIteJ8NUuipBqApNdVz3l8h3iqt88A9dEJrkouvcPYzOoENGZCQwUIAyCb68rbI+/XFR/lpQvScB+BVwmeNl/bH58AlvENIAWb1StOsaVp9IoR1a9ZlSTHyNGrqgq5msuZOgnXWs3l9NK+lMyTVFxFiDlEUYVwMm/KWqIaPKWufsS1y+kEF1b8zV57J7EQaTmEeLC+m/Oe2WuvN5a0Z3C9vdjuYPbai43lZsvjRKaoGKPNXnpRKyozY+j8VM7vh6P2SBAtNRY9oKAvvXXS3ewx9a6Oi6HrHdUxXDyPo6gWkF4JJkXtqdFpJGWr7OO85JMwEIyoxaLIukHQgkDEDNrsNbrieV8lErWnqxp9uE6ZHQqf2UtYCpi19a7yE5dZvfQZkNX1qucxsMRdVDQM2JW2OtP1+QnOe0/a2xuwFbu79qyA/rO73v+A2dqqMhS1p0LJVEX/hf3Q/cbjaV0lJJ6fdbNEx0Pzv6R4fT6t77pJM96+f/+0rOky78/m7uvx/m9RC7cBBTOzD+pP6Lyvsq2wREytfV047irUtf3Q+MKt+UsfV3tqra7uLl3iunZTgpj5allV/8Dxrrpe7IIMt2bdb2UTtGv75JRsrHEsnVtqTSjpVnd3oXMrudOXOvp/35gzcP+UrneDuCGx+KyHHcQSoF2KQb0XxacYEbvnS3G5YcK+5OJyhsiyQXFJg+WGdMHPd53FjLS7uLTB0lXyo8XlDQYgx1Vc4mAZNPWPlKhMwnJ0UmNKUNf7QgUo563WO50BWx6nVr7iwIsnBpCbSwbAm59Dw02cfPXT5Q8vAnLuupdWRIPzYABhaIsyUttm0xQr8QEygHJ8PkAGkCCYErZ45aq15hfKXnZV1JSxHSQXFbnM0VMilIs6ytX1zt8QBFAx9cuu1rxyY/qGrJqVAXDzZe3NMwB29Ca3+c460jOAtOmv+EPN3kl7YNKLIxr1stGLiJWjRvTVhk+zFFWdXJoS99DrSk/8/YPskkz7C3bpu1YK+wuJjdmlpat+QtdQpjaRrXmjO3pTiUxOmJkuoW0ogKTx9TMRDkDa220jnICMLV5Lm2sKoNJxctm1AUgOsd0v9MfcAh2gdb6KAvBOiWstMl9IGaoB5NcT1u0GBmidtiInXm5LprWhyJpcA5YBcB2qsuJ1f4IvHEn/SO68NYrT1TqG3eTa1HLnH2koGrJe1MtXNawoAI9odvVyLuEvLVBWemK2mrL2SBqAYlxyvNUAxATW3WE3JCpVrvxUEj7ujFjcJSuAJON1XToqgDTOFNUJGABvokXXZfPCe7tbhwZANxN0L5WI9wCSa241ANEff3PyRdNMcux+Xd6h66JTf0bIAMQE4lSC9aLxJ7qeYUvUiDrE6ZqXMsrZcbrNxxEoDtd1lrnYP1wDFlfVDSDce11xgpVe1eGmAGIzKwmbCsBWjaGiUuGWx9g1pXnRdeavHpeKuurKPF3nHDaodBXCDUAJR+zaDbsugvE7CA0t9dUF7eG+gYqPBpDuhtL4RrfLFAs3YMWmQXF1MNJF+abt5AYgkhirpjSFm8gMoAoi/zqSAbSTtPPPdVStGRRuhPuOH5mzf9x+ou63Dx8/fvuFu/vP9Sft7E/ffg4v//xf);fillColor=none;dashed=1;" parent="hyWGP1_BrydNDejiXZFT-103" vertex="1">
          <mxGeometry x="17.222222222222285" y="0.2962962962963047" width="26.203703703703702" height="26.28472222222222" as="geometry" />
        </mxCell>
        <mxCell id="hyWGP1_BrydNDejiXZFT-113" value="" style="shape=stencil(lZzZsuW2DUW/pl9VHMDp2Un+w1Vux11x3C7bmf4+YDrSuWfjnqXutztgS5RIAhsboD7U737/6ftfP34o6fc/fvv8t4//+vTDHz99qH/6UMqnX376+NunP/ynD/XPH+p3P37+7eNff/v8j19++PL7r99vy/3T3z//c1/h319wlo4xNqqk/3z5S25Hnv/7y1++AH7+9MszwOYzwI61EFCzAlp9DajrqHKHcky4Q53nAN4AiiFAh5QZMI6engHpyB0A/ZjtCbCOBG+1Nn2EcSx6R+1Iz9PmN8xgb0ddYp/pgesxnt9QOxpdvx7p+QXZMel5y1GL2OME5KM/j6cevYF9Ol/fwz7REkpHeX4/5bzhu/Y+naOIfUlon5/t8zEL2M/DZMEdBuP35dK72BdYP3u5yLY/J/CVfXpez4nH387bP+w7jccO0+sbrJ89/Xr9Stcv5/Z42BcafzlSF/sM681fX9Xr/3+Dvm+fjqbXT7D+81J/knC+3F78w83151G+Zfx5HGV+w/vJXfeXv3/wnx6Egr3R9d2/6fuk9Zbr6c6+bj17QJH9nvl95mPp/ir0PrPul4wx0sNPa2I/wD+sYz1PVzn38wtzU3PyJh5/m5iTs/LoO8R8wtWHMpSKrnac/32YN3jz/RhqvmBi+xmm3sQt8FPtmGpOYaWpF2Rq5Uzt+c20M6q+z8SOVcS8o/kwMaeQburROvNIJXkdHb6pf7oI1gvz9LydBrqbqt7VwymsmXr+9zSfTO7Orfwwp+1Rj9rEHKngSeQeTLNS5DxWF/MJb8b9nnDxi86/sI9EeeD1TfwqM/Gi68DtJwVCXfPuyY0c8dGf36ZHigLP67RM/Pa19F7Y6/ivXfmufdLp8shIuVBS3u6Rl+bX44jM10BnnJS3O3Og+U3heRcS96SreQd+HI/wHH/D5HaS5imbiON41L4cDedL7X1/4nxFe54vtedkOto3TFzfs5+wXy5aedn3o8H+jfM1cL/7eshqv3j9CHOZZ2b0an0KdVknk/y69V+ZKCf1D5WJZtJY4Zlvw/GIv9qZNb5P8eeVE+OYR1fc71nn96E8fJ0/3MoGvJ+sOobbkz/JJ/m77Ps54y/s9f2wsFJ0v9RxstsX9kLZ3J78fwnPOzkxDs+7MFEJ8d3tOwkBGo8sncrGK3Yy1L6T0KPPa/nm+sI3LCPDrieHvew5E7Iw/oL+zU5qd9lXXM8WxlNRaGtKDo35RlPdw+0bPG8/vcdl304P/MJ+ZbVvsN/HGT0v+47Xn5rNuT1dP6SiNpCbL9XN3P4m8a5VAYsIaFblzOadFDCTAmhLOqNtUwGUwzqlFbHEFg/JTnHnDYB22Sa1VQE4pKb6SkvIC5zWiiDsABzSUM/oAGISTmyFGreMub4zW+sKIO6xyURTAA1pR0sZUsFotsNTUQC5ly3FmAIw/gUhtlXc0DvxzwowBoh25YBBIeryQBfA7sTtMhRAJCp6PQeQYLDdnsx0Q7e0/V5VAPmlcm35C9CP9E0VDAeQUObEVSTTNlCIc+YqbsYBi2JzOTX5C+DJJUkfVdl+WyhpORkVut8ThpMa4m3PDOih0FaQwG++KHeoXB6dKkF2Ox3P+4B1MvwL0JCTO0CWd+/ojHcR+dkv9YHlRSdpqv6Nk1i+AogT6PNkru8Diu64vrAi4LwrP6/WkVCmsysRugAZvYYzL6EOo2Du5QAp0jmAknHnXnqHenKDV4AhZWdjCbmfOuobAFb/PU7LHRoGxc3Xnpf3uGpHrwA2FECCqQOmPMPgpTG1GDXmUcHzOUB861jojJ0diew1Lvf8CiBsZibMS1oQXmbGmXaA3qHgnm5ZU2EHUGrbgnY6ObC3rDL9NBTjNjt69hqz4RZ1gCr7HdNPpyJSaHAA6actqvvj5JmvAKLwzIlewwGSok+WaFtgZHNhfNhkpyoA61SmWdlKmIU62ZEhrcyLr2mxygGDAF2p9Coo3DhA71BRWXGyUwOASOJmR8+rdRmmZZsdJQXg4vMMRYZ08Zv3s/t0+rk3AIpAzo4kU1yd71A0PXYAFXQcIER3DazQ9BCnHUCu0umUJH4OoMqn0ylhlWvykLrGOAdQWuYAidOLmXEP2a4DiGA5nRK/tBbuOKdToow5gFpwnE6Jq3QAeW8HSO3OAbSBRogPDiCSOEJXkAOoujaCfOgAeq0jeL6cuHNnhE6rW8TQ3rI9KJqJGTbpwiKYk5ES7kDedSaliXuuSbbLSrEcYPDQM+SKe73CXM+qlSTfEbSrHSAa1t6k9AymWvqayFydjPTgykj/cW4h1XIHUL7r3EI36UANywG6hTrm7M4tLADIuzpVEElqdZQRHCCNJTsGwfJ2bqF3aJggr9DS7ACiWCsFPmNY1Vgh33UAlYVXEIGdPAzq2CqBz1RseVkhQfa/DJjpFQNvwR3nA1AClDHP2vxoKYCKG/4SlTwk7O5wgBAgX13kBDahSgqgtMlXjvjWG/a9mspqc6LY8lj9bzIIXHw9DGnw8u6aUW/HwwAdUsMuBvdCOqSGHYYO0FzRUFZzgKTg7s8ptLuv1vS1YovwCqqAxyRyxjt8yOJjuX9zvKUA8t6b4wVVgIoi6z3dgeo0a2n/w+DS0Q7jos5MnrigbIzBa2lpFN2EiB96SLdfR66x2ZE8dEOh4sEiv1IlexC2NwAq7Dxo51ulj4qEKXT2OPvFTo53EVQrfw+RsRnxncdISPHfebNMjvdki/i9MM+Py8lTI6qA7QWbFEC0L+4hz9Zu7iC71AF4h6nLaSeQ5F7n0acCKIN1gPhjT4I7D0lKNTtrpom7yuoXwM5BvgJIGdwBpN2toUlKr1ho31R4KADv0M/epAtQeHl3FfA7d96vq8h3ATKmvKuFIWVM27dCJPOQOJBamLh0sq6XpCxU8SipXjXUOhc2iTpAaF+bmNVsrpsVgHcoeqbhoea9JPimAMqbVg5Fag9znAaJOrglTIop6bzeGwDlTXOFQvttKqftCA3pxpzaTrWFXkpHRzjjwHVzB2g7ApcInApLfHAApXKbCochUe1/huaZZqjnTNOw6wBqMo1aiANoaUS15abhYWZ1ZBtASyM0yjYm+M47xd03LgY575zhDtRKuWWy8NAIGMHN3ABCcfQO0LQifA9I33aH2J5zA6gqz9wBguh6D0jxDiRXZi37bQB4jRG6rm8agPoKZ6MM1ZY+leg2FoB64Eu7iYmKECN0n1VW/LumQQ4gGhqrFjeNWM7w5BCzA7D51EJPEveG9eudvAEUcAJO2OKQSGLq4eDnTUPcLmhlBeBDZyVYu2xNSyNpz+puG6Tyazj9uRsTGaBsJmOG7OxIZLLdDUA15xnYTOIhjXCHhIVFB1hoEKVObAeIm9lNrnS2s4fe4cVD6upbbxp1NzsqCiAhbpOdAKCUfXOX0M5MYbeFU6E3Ddaxu2B3cNMdYot+xxR/+wiZh4YJx97yAjB0lbEtxAGkM8fGk7s2/ay6hlUUEx0gqoNdRy1eAbIAWP/x7SLxwQq3haQwD4V3XDjsZxmVbFvauWV8rD62SVlCMdGCNmP84QELH1pwAO0H35CSDtTFDz3fOdJD1MEBwr3rxDhtU6NonXx2eyiVroPvMFR1cADpmxb0/ptzWA4oRQHYyRj6DOvN+faui69yG60F9aca6v0W6i4OwMNGQS5yAGkCFkpB+zgfvaWgLzmAzn+76xX1pxaMcbEFtXLDtDVNmiprZHZ95uACZFSw9hGmpoCbIenEZaShjwB1ARJ/zyBQ6cofyNmtwEMBVBWxoPPtLwMwQORTB1AT0wYUBZDIbJewcgEmdpRuQFEANhs3LSAX1vksHEYp3OplQQ29OcAcm77LwBOuFkrUDkC/ZGct4A0AvYapI3t8PuoloCiAzpbsQ4lTARjYTbdoaai3WhCZHUCS1waEk/CkJO72/qGAm2cQ7+0A7BK3sEVZtjMLW9T4TIOFHce6hlnYcYZdsRYy9lL5IIdpBNrfUyEnEKoDhTthHKA7rmLCEU9+7GPU9NBVM8X93RN66KrKeuFeGwvfs9rftWCABQB+DSh085SMX0qwGhbflYK8AujiS2eR5CWgKODmGdTdJ3aVoefp8UGTV4AZAHj+u4Tvby7sf7aQi2Y+sR9PQmWullkJX/hcUtbxHx4fFP3x088/f/ke6dv/6wdI/U9fPl5a//xf);fillColor=none;dashed=1;" parent="hyWGP1_BrydNDejiXZFT-103" vertex="1">
          <mxGeometry y="12.148148148148152" width="32.47685185185185" height="31.099537037037035" as="geometry" />
        </mxCell>
        <mxCell id="hyWGP1_BrydNDejiXZFT-114" value="Upscaling" style="rounded=1;whiteSpace=wrap;html=1;fillColor=#ffcc99;strokeColor=#36393d;verticalAlign=top;" parent="1" vertex="1">
          <mxGeometry x="710" y="267" width="90" height="76" as="geometry" />
        </mxCell>
        <mxCell id="hyWGP1_BrydNDejiXZFT-115" value="" style="group" parent="1" vertex="1" connectable="0">
          <mxGeometry x="733.2844444444444" y="293.75" width="43.42592592592598" height="43.24768518518516" as="geometry" />
        </mxCell>
        <mxCell id="hyWGP1_BrydNDejiXZFT-116" value="" style="group" parent="hyWGP1_BrydNDejiXZFT-115" vertex="1" connectable="0">
          <mxGeometry x="2.5555555555556566" width="37.78" height="40" as="geometry" />
        </mxCell>
        <mxCell id="hyWGP1_BrydNDejiXZFT-117" value="" style="ellipse;whiteSpace=wrap;html=1;aspect=fixed;fillColor=#000000;" parent="hyWGP1_BrydNDejiXZFT-116" vertex="1">
          <mxGeometry x="16.66764705882353" y="15.555555555555555" width="8.88864283649203" height="8.88864283649203" as="geometry" />
        </mxCell>
        <mxCell id="hyWGP1_BrydNDejiXZFT-118" value="" style="ellipse;whiteSpace=wrap;html=1;aspect=fixed;" parent="hyWGP1_BrydNDejiXZFT-116" vertex="1">
          <mxGeometry y="15.555555555555555" width="8.88864283649203" height="8.88864283649203" as="geometry" />
        </mxCell>
        <mxCell id="hyWGP1_BrydNDejiXZFT-119" value="" style="ellipse;whiteSpace=wrap;html=1;aspect=fixed;" parent="hyWGP1_BrydNDejiXZFT-116" vertex="1">
          <mxGeometry x="28.890588235294118" y="3.333333333333333" width="8.88864283649203" height="8.88864283649203" as="geometry" />
        </mxCell>
        <mxCell id="hyWGP1_BrydNDejiXZFT-120" value="" style="ellipse;whiteSpace=wrap;html=1;aspect=fixed;fillColor=#FFFFFF;" parent="hyWGP1_BrydNDejiXZFT-116" vertex="1">
          <mxGeometry x="17.778823529411763" y="31.11111111111111" width="8.88864283649203" height="8.88864283649203" as="geometry" />
        </mxCell>
        <mxCell id="hyWGP1_BrydNDejiXZFT-121" style="edgeStyle=none;rounded=0;orthogonalLoop=1;jettySize=auto;html=1;entryX=0;entryY=0.5;entryDx=0;entryDy=0;endArrow=none;endFill=0;" parent="hyWGP1_BrydNDejiXZFT-116" source="hyWGP1_BrydNDejiXZFT-117" target="hyWGP1_BrydNDejiXZFT-117" edge="1">
          <mxGeometry relative="1" as="geometry" />
        </mxCell>
        <mxCell id="hyWGP1_BrydNDejiXZFT-122" value="" style="ellipse;whiteSpace=wrap;html=1;aspect=fixed;fillColor=#000000;" parent="hyWGP1_BrydNDejiXZFT-116" vertex="1">
          <mxGeometry x="28.890588235294118" y="3.333333333333333" width="8.88864283649203" height="8.88864283649203" as="geometry" />
        </mxCell>
        <mxCell id="hyWGP1_BrydNDejiXZFT-123" value="" style="ellipse;whiteSpace=wrap;html=1;aspect=fixed;fillColor=#FFFFFF;" parent="hyWGP1_BrydNDejiXZFT-116" vertex="1">
          <mxGeometry y="15.555555555555555" width="8.88864283649203" height="8.88864283649203" as="geometry" />
        </mxCell>
        <mxCell id="hyWGP1_BrydNDejiXZFT-124" value="" style="shape=stencil(lZzZ0hvHDYWf5r+d6n25dpz3cJXlSBVFcslylrcPOkoPyYPhR+lO+okz7OkFODhA8y3/9Mf7X35/95bCH1+/fP77u399+PXr+7f8l7eUPnx6/+7Lh6/2r7f881v+6bfPX9797cvnPz/9+u3/v/+yLNe//vH5n+sJ//6Gi+noaaFS+M+3v9Rw5P6/v/z1G+Djh0+PgP9/fAfoGQDxaO0REI8aAGDPq4+AdNSCgFweAfkI6TlgHi2r/YQRjWPKHJVjwPPHkeSN69Hnc/t+VHnhdoxK9jE+2vejwfjb0cV+7Bl7Yp9l/PMI+PwY1L7B/NRjPM5/C0eE+alH7Wrf8fn5cTwtHimSfUxq32A8Ze+W0z4dcZB9G2rfYT7LUWQ8+Uj4fNkPZj9g/PapjL8cFeYnH2U+2tuMgY/Iezbu7AfY22yIfTsquJR0FNk/diLgvCS3vh33TzzG4/5vdqLh+VH9idl3WK94FHn+PDLMf9yrf2dP/iTqeewB90/c3vLOfsB47NPH8fS4d+wTe3HoPR0BxhM0Ypg9vW/Yu+W0z0fF5xeZn4IxL+zVOe0r+hObbZnPdgTYP+b9stoPHH94PI+97x34zP4xPnbz//x8mZ+5R/jd9rxeYj9sRXA+vf3k8T++74jo39x8Dtuf+L7i38y+4fNl/wzzkBB/g/pbs6d46s7LKEdoP3B+zR4Z2faud/aTCJlSxFFxvzn/afbEr6LG39E243ri/1NU+47xoj6e39GPhPFrdLUfMJ95P+205/Noq+/sJ4zf8YEx9xs9sRf+OQP6K1v9qfbkb231xT7i/qw6n5MzBsdXzX6C/2mbHZ32J6N4wrclXpv9hPM+1J9PY1BwXoaeR7OfsN+m7of54vza8sgL1CNQkmfxfCig0Yk/M7QT0DBERtvTVQHIaYqSiNmZNNXNYe4AdOpjUxo6B9LKaM9rCsB1GDtTvgMQ0Ypzx5UTMJE5pTOQ3gGIui7f3hRAZ8GTYwNUcr7p4h0ou1rphgNQODB/lIIC6HwuB+beYdI7VM2gYwiYEpuPEZ/xEtEvVgLfojs3+WKehvIKA3Q41eZoJPCvpaN3sOe5IRXKFIOmcgbIFDrjZk7feSIMMOQdxt7B14DkouFAdp2zyj0GoHQiGzuLCoiUfxcV6eYLglH3rN8BCikCbSf0dwCSNHJzMathjp+7kjwDVAKcnOg+pNDCTaXlFrSIJhlgdgXQ9i7BbW9LBEkois73FVRmSnJHlEN7yUfOCogEKBfkhMKiATw7yQSomwze0yUCNPcOCUNK6fvI3wEiEdy+ucUdQ2ykqJmrrApI4CrLVI1pBp7W6bjAKRtck+KwOeQdqycVsfq0beIsGUAYk+UZlDfXpG7GEp8JrrJm9d4GyDQkJ1Va6tYodXDaqQEo7Naqe2klq7DSS8uXIRVWo116MviI1q56nOX/pIcu+V+mNe2SxTXAVSgMgC/tUpQRty+8BkxNCAyQKIcLSuJGwLBrgJEUQFlri3qA+txpzjUgaZzuAxmZASTG9ReFlqzKRD9zimeAXhSQaJaKag39rAY9A6hY25AJtKrqdK+ohjWXmPXC6XpTkrj0Wnrp7hYu80v3ra/dAeiIroKArEPCFL8NTZt6RLLepqbg/UzVrkWKcKH6U9nUPhYZoU2UHXrUI7oGSd8QNcataaBvSOqXGh8gA4zHdVilHfoGl1wagPySbbUg79BQjDVACwogv2THxZfLSK4zgBxRO7REsOwEiyDbChZsDCAKX8uYcKwChCtBkl8yxyh+aTlPGtLYzOIERMzZzblLUFxVYJil4XJRCzHEvVdEkz6CiW5mlRUe3cyKqzBLBhCvYaGeXKURBSEntWNqeVP+T0DDhTN2lKRZobK4eSZhJ6Bs7e8a0NQZLxZIgK4RqLL3XixVGkbS5mjXgKEC6uphIYDLRSuXVA0gRNcAJNHOoGfaMgqi0gaQdbAkh+L0dCKwpVFEf2ZUWc0AdOKmy3YtFaywvVciKUOqrJRnTQcMUGBrGEBY5cp/4TxYui3NJgYg5dsAkotaDl9plqq6ypJQRDCA6NKF+1NmU+mxRIxABpAYVwKKarNrCbcEDLtL3H+cpTyRzdzE/RMwsIg+x65B3QESvfTQE5c7OoGbbngCGtZNDSCFzdxQSVzapwypYpxe1YCpAHL3N/32BBT2GlO3xpI76aWdEJIzqg43lfsEJGwHuOnodwDqN7hVA05A5OJUcC0KS6imkvcFIqBUfoG4ye0/gKDGyCvEwP1xheiYVV8hGneQXiAqrvg1Iv0goqA+fYXISMP9tlqdAOTIp1Z4VjGNd7qUMFPiTtipZdjVvEE+be6zeQICqpCrnvPIteJ8NUuipBqApNdVz3l8h3iqt88A9dEJrkouvcPYzOoENGZCQwUIAyCb68rbI+/XFR/lpQvScB+BVwmeNl/bH58AlvENIAWb1StOsaVp9IoR1a9ZlSTHyNGrqgq5msuZOgnXWs3l9NK+lMyTVFxFiDlEUYVwMm/KWqIaPKWufsS1y+kEF1b8zV57J7EQaTmEeLC+m/Oe2WuvN5a0Z3C9vdjuYPbai43lZsvjRKaoGKPNXnpRKyozY+j8VM7vh6P2SBAtNRY9oKAvvXXS3ewx9a6Oi6HrHdUxXDyPo6gWkF4JJkXtqdFpJGWr7OO85JMwEIyoxaLIukHQgkDEDNrsNbrieV8lErWnqxp9uE6ZHQqf2UtYCpi19a7yE5dZvfQZkNX1qucxsMRdVDQM2JW2OtP1+QnOe0/a2xuwFbu79qyA/rO73v+A2dqqMhS1p0LJVEX/hf3Q/cbjaV0lJJ6fdbNEx0Pzv6R4fT6t77pJM96+f/+0rOky78/m7uvx/m9RC7cBBTOzD+pP6Lyvsq2wREytfV047irUtf3Q+MKt+UsfV3tqra7uLl3iunZTgpj5allV/8Dxrrpe7IIMt2bdb2UTtGv75JRsrHEsnVtqTSjpVnd3oXMrudOXOvp/35gzcP+UrneDuCGx+KyHHcQSoF2KQb0XxacYEbvnS3G5YcK+5OJyhsiyQXFJg+WGdMHPd53FjLS7uLTB0lXyo8XlDQYgx1Vc4mAZNPWPlKhMwnJ0UmNKUNf7QgUo563WO50BWx6nVr7iwIsnBpCbSwbAm59Dw02cfPXT5Q8vAnLuupdWRIPzYABhaIsyUttm0xQr8QEygHJ8PkAGkCCYErZ45aq15hfKXnZV1JSxHSQXFbnM0VMilIs6ytX1zt8QBFAx9cuu1rxyY/qGrJqVAXDzZe3NMwB29Ca3+c460jOAtOmv+EPN3kl7YNKLIxr1stGLiJWjRvTVhk+zFFWdXJoS99DrSk/8/YPskkz7C3bpu1YK+wuJjdmlpat+QtdQpjaRrXmjO3pTiUxOmJkuoW0ogKTx9TMRDkDa220jnICMLV5Lm2sKoNJxctm1AUgOsd0v9MfcAh2gdb6KAvBOiWstMl9IGaoB5NcT1u0GBmidtiInXm5LprWhyJpcA5YBcB2qsuJ1f4IvHEn/SO68NYrT1TqG3eTa1HLnH2koGrJe1MtXNawoAI9odvVyLuEvLVBWemK2mrL2SBqAYlxyvNUAxATW3WE3JCpVrvxUEj7ujFjcJSuAJON1XToqgDTOFNUJGABvokXXZfPCe7tbhwZANxN0L5WI9wCSa241ANEff3PyRdNMcux+Xd6h66JTf0bIAMQE4lSC9aLxJ7qeYUvUiDrE6ZqXMsrZcbrNxxEoDtd1lrnYP1wDFlfVDSDce11xgpVe1eGmAGIzKwmbCsBWjaGiUuGWx9g1pXnRdeavHpeKuurKPF3nHDaodBXCDUAJR+zaDbsugvE7CA0t9dUF7eG+gYqPBpDuhtL4RrfLFAs3YMWmQXF1MNJF+abt5AYgkhirpjSFm8gMoAoi/zqSAbSTtPPPdVStGRRuhPuOH5mzf9x+ou63Dx8/fvuFu/vP9Sft7E/ffg4v//xf);fillColor=none;dashed=1;" parent="hyWGP1_BrydNDejiXZFT-115" vertex="1">
          <mxGeometry x="17.222222222222285" y="0.2962962962963047" width="26.203703703703702" height="26.28472222222222" as="geometry" />
        </mxCell>
        <mxCell id="hyWGP1_BrydNDejiXZFT-125" value="" style="shape=stencil(lZzZsuW2DUW/pl9VHMDp2Un+w1Vux11x3C7bmf4+YDrSuWfjnqXutztgS5RIAhsboD7U737/6ftfP34o6fc/fvv8t4//+vTDHz99qH/6UMqnX376+NunP/ynD/XPH+p3P37+7eNff/v8j19++PL7r99vy/3T3z//c1/h319wlo4xNqqk/3z5S25Hnv/7y1++AH7+9MszwOYzwI61EFCzAlp9DajrqHKHcky4Q53nAN4AiiFAh5QZMI6engHpyB0A/ZjtCbCOBG+1Nn2EcSx6R+1Iz9PmN8xgb0ddYp/pgesxnt9QOxpdvx7p+QXZMel5y1GL2OME5KM/j6cevYF9Ol/fwz7REkpHeX4/5bzhu/Y+naOIfUlon5/t8zEL2M/DZMEdBuP35dK72BdYP3u5yLY/J/CVfXpez4nH387bP+w7jccO0+sbrJ89/Xr9Stcv5/Z42BcafzlSF/sM681fX9Xr/3+Dvm+fjqbXT7D+81J/knC+3F78w83151G+Zfx5HGV+w/vJXfeXv3/wnx6Egr3R9d2/6fuk9Zbr6c6+bj17QJH9nvl95mPp/ir0PrPul4wx0sNPa2I/wD+sYz1PVzn38wtzU3PyJh5/m5iTs/LoO8R8wtWHMpSKrnac/32YN3jz/RhqvmBi+xmm3sQt8FPtmGpOYaWpF2Rq5Uzt+c20M6q+z8SOVcS8o/kwMaeQburROvNIJXkdHb6pf7oI1gvz9LydBrqbqt7VwymsmXr+9zSfTO7Orfwwp+1Rj9rEHKngSeQeTLNS5DxWF/MJb8b9nnDxi86/sI9EeeD1TfwqM/Gi68DtJwVCXfPuyY0c8dGf36ZHigLP67RM/Pa19F7Y6/ivXfmufdLp8shIuVBS3u6Rl+bX44jM10BnnJS3O3Og+U3heRcS96SreQd+HI/wHH/D5HaS5imbiON41L4cDedL7X1/4nxFe54vtedkOto3TFzfs5+wXy5aedn3o8H+jfM1cL/7eshqv3j9CHOZZ2b0an0KdVknk/y69V+ZKCf1D5WJZtJY4Zlvw/GIv9qZNb5P8eeVE+OYR1fc71nn96E8fJ0/3MoGvJ+sOobbkz/JJ/m77Ps54y/s9f2wsFJ0v9RxstsX9kLZ3J78fwnPOzkxDs+7MFEJ8d3tOwkBGo8sncrGK3Yy1L6T0KPPa/nm+sI3LCPDrieHvew5E7Iw/oL+zU5qd9lXXM8WxlNRaGtKDo35RlPdw+0bPG8/vcdl304P/MJ+ZbVvsN/HGT0v+47Xn5rNuT1dP6SiNpCbL9XN3P4m8a5VAYsIaFblzOadFDCTAmhLOqNtUwGUwzqlFbHEFg/JTnHnDYB22Sa1VQE4pKb6SkvIC5zWiiDsABzSUM/oAGISTmyFGreMub4zW+sKIO6xyURTAA1pR0sZUsFotsNTUQC5ly3FmAIw/gUhtlXc0DvxzwowBoh25YBBIeryQBfA7sTtMhRAJCp6PQeQYLDdnsx0Q7e0/V5VAPmlcm35C9CP9E0VDAeQUObEVSTTNlCIc+YqbsYBi2JzOTX5C+DJJUkfVdl+WyhpORkVut8ThpMa4m3PDOih0FaQwG++KHeoXB6dKkF2Ox3P+4B1MvwL0JCTO0CWd+/ojHcR+dkv9YHlRSdpqv6Nk1i+AogT6PNkru8Diu64vrAi4LwrP6/WkVCmsysRugAZvYYzL6EOo2Du5QAp0jmAknHnXnqHenKDV4AhZWdjCbmfOuobAFb/PU7LHRoGxc3Xnpf3uGpHrwA2FECCqQOmPMPgpTG1GDXmUcHzOUB861jojJ0diew1Lvf8CiBsZibMS1oQXmbGmXaA3qHgnm5ZU2EHUGrbgnY6ObC3rDL9NBTjNjt69hqz4RZ1gCr7HdNPpyJSaHAA6actqvvj5JmvAKLwzIlewwGSok+WaFtgZHNhfNhkpyoA61SmWdlKmIU62ZEhrcyLr2mxygGDAF2p9Coo3DhA71BRWXGyUwOASOJmR8+rdRmmZZsdJQXg4vMMRYZ08Zv3s/t0+rk3AIpAzo4kU1yd71A0PXYAFXQcIER3DazQ9BCnHUCu0umUJH4OoMqn0ylhlWvykLrGOAdQWuYAidOLmXEP2a4DiGA5nRK/tBbuOKdToow5gFpwnE6Jq3QAeW8HSO3OAbSBRogPDiCSOEJXkAOoujaCfOgAeq0jeL6cuHNnhE6rW8TQ3rI9KJqJGTbpwiKYk5ES7kDedSaliXuuSbbLSrEcYPDQM+SKe73CXM+qlSTfEbSrHSAa1t6k9AymWvqayFydjPTgykj/cW4h1XIHUL7r3EI36UANywG6hTrm7M4tLADIuzpVEElqdZQRHCCNJTsGwfJ2bqF3aJggr9DS7ACiWCsFPmNY1Vgh33UAlYVXEIGdPAzq2CqBz1RseVkhQfa/DJjpFQNvwR3nA1AClDHP2vxoKYCKG/4SlTwk7O5wgBAgX13kBDahSgqgtMlXjvjWG/a9mspqc6LY8lj9bzIIXHw9DGnw8u6aUW/HwwAdUsMuBvdCOqSGHYYO0FzRUFZzgKTg7s8ptLuv1vS1YovwCqqAxyRyxjt8yOJjuX9zvKUA8t6b4wVVgIoi6z3dgeo0a2n/w+DS0Q7jos5MnrigbIzBa2lpFN2EiB96SLdfR66x2ZE8dEOh4sEiv1IlexC2NwAq7Dxo51ulj4qEKXT2OPvFTo53EVQrfw+RsRnxncdISPHfebNMjvdki/i9MM+Py8lTI6qA7QWbFEC0L+4hz9Zu7iC71AF4h6nLaSeQ5F7n0acCKIN1gPhjT4I7D0lKNTtrpom7yuoXwM5BvgJIGdwBpN2toUlKr1ho31R4KADv0M/epAtQeHl3FfA7d96vq8h3ATKmvKuFIWVM27dCJPOQOJBamLh0sq6XpCxU8SipXjXUOhc2iTpAaF+bmNVsrpsVgHcoeqbhoea9JPimAMqbVg5Fag9znAaJOrglTIop6bzeGwDlTXOFQvttKqftCA3pxpzaTrWFXkpHRzjjwHVzB2g7ApcInApLfHAApXKbCochUe1/huaZZqjnTNOw6wBqMo1aiANoaUS15abhYWZ1ZBtASyM0yjYm+M47xd03LgY575zhDtRKuWWy8NAIGMHN3ABCcfQO0LQifA9I33aH2J5zA6gqz9wBguh6D0jxDiRXZi37bQB4jRG6rm8agPoKZ6MM1ZY+leg2FoB64Eu7iYmKECN0n1VW/LumQQ4gGhqrFjeNWM7w5BCzA7D51EJPEveG9eudvAEUcAJO2OKQSGLq4eDnTUPcLmhlBeBDZyVYu2xNSyNpz+puG6Tyazj9uRsTGaBsJmOG7OxIZLLdDUA15xnYTOIhjXCHhIVFB1hoEKVObAeIm9lNrnS2s4fe4cVD6upbbxp1NzsqCiAhbpOdAKCUfXOX0M5MYbeFU6E3Ddaxu2B3cNMdYot+xxR/+wiZh4YJx97yAjB0lbEtxAGkM8fGk7s2/ay6hlUUEx0gqoNdRy1eAbIAWP/x7SLxwQq3haQwD4V3XDjsZxmVbFvauWV8rD62SVlCMdGCNmP84QELH1pwAO0H35CSDtTFDz3fOdJD1MEBwr3rxDhtU6NonXx2eyiVroPvMFR1cADpmxb0/ptzWA4oRQHYyRj6DOvN+faui69yG60F9aca6v0W6i4OwMNGQS5yAGkCFkpB+zgfvaWgLzmAzn+76xX1pxaMcbEFtXLDtDVNmiprZHZ95uACZFSw9hGmpoCbIenEZaShjwB1ARJ/zyBQ6cofyNmtwEMBVBWxoPPtLwMwQORTB1AT0wYUBZDIbJewcgEmdpRuQFEANhs3LSAX1vksHEYp3OplQQ29OcAcm77LwBOuFkrUDkC/ZGct4A0AvYapI3t8PuoloCiAzpbsQ4lTARjYTbdoaai3WhCZHUCS1waEk/CkJO72/qGAm2cQ7+0A7BK3sEVZtjMLW9T4TIOFHce6hlnYcYZdsRYy9lL5IIdpBNrfUyEnEKoDhTthHKA7rmLCEU9+7GPU9NBVM8X93RN66KrKeuFeGwvfs9rftWCABQB+DSh085SMX0qwGhbflYK8AujiS2eR5CWgKODmGdTdJ3aVoefp8UGTV4AZAHj+u4Tvby7sf7aQi2Y+sR9PQmWullkJX/hcUtbxHx4fFP3x088/f/ke6dv/6wdI/U9fPl5a//xf);fillColor=none;dashed=1;" parent="hyWGP1_BrydNDejiXZFT-115" vertex="1">
          <mxGeometry y="12.148148148148152" width="32.47685185185185" height="31.099537037037035" as="geometry" />
        </mxCell>
        <mxCell id="hyWGP1_BrydNDejiXZFT-126" value="Input&lt;br&gt;sequence" style="text;html=1;strokeColor=none;fillColor=none;align=center;verticalAlign=middle;whiteSpace=wrap;rounded=0;dashed=1;" parent="1" vertex="1">
          <mxGeometry x="10" y="286.25" width="60" height="30" as="geometry" />
        </mxCell>
        <mxCell id="hyWGP1_BrydNDejiXZFT-127" value="Output&lt;br&gt;sequence" style="text;html=1;strokeColor=none;fillColor=none;align=center;verticalAlign=middle;whiteSpace=wrap;rounded=0;dashed=1;" parent="1" vertex="1">
          <mxGeometry x="650" y="435" width="60" height="30" as="geometry" />
        </mxCell>
      </root>
    </mxGraphModel>
  </diagram>
</mxfile>
